<svg width="32" height="32" viewBox="0 0 32 32" fill="none" xmlns="http://www.w3.org/2000/svg">
<g clip-path="url(#clip0_744_339)">
<path d="M17.7669 16.002L31.6329 2.1359C32.1211 1.64772 32.1211 0.856217 31.6329 0.368093C31.1447 -0.120031 30.3532 -0.120094 29.8651 0.368093L15.999 14.2342L2.13297 0.368093C1.64479 -0.120094 0.853287 -0.120094 0.365163 0.368093C-0.122961 0.85628 -0.123023 1.64778 0.365163 2.1359L14.2312 16.0019L0.365163 29.868C-0.123023 30.3562 -0.123023 31.1477 0.365163 31.6358C0.609225 31.8799 0.929162 32.0019 1.2491 32.0019C1.56904 32.0019 1.88891 31.8799 2.13304 31.6358L15.999 17.7698L29.865 31.6358C30.1091 31.8799 30.429 32.0019 30.749 32.0019C31.0689 32.0019 31.3888 31.8799 31.6329 31.6358C32.1211 31.1477 32.1211 30.3562 31.6329 29.868L17.7669 16.002Z" fill="white"/>
</g>
<defs>
<clipPath id="clip0_744_339">
<rect width="32" height="32" fill="white"/>
</clipPath>
</defs>
</svg>
