<svg width="136" height="19" viewBox="0 0 136 19" fill="none" xmlns="http://www.w3.org/2000/svg">
<path d="M10.9168 17.4669H7.23697V13.6644H3.67982V17.4669H0V6.42741H3.67982V10.2299H7.23697V6.42741H10.9168V17.4669Z" fill="white"/>
<path d="M14.6625 16.1176C13.5504 15.0055 12.9943 13.6153 12.9943 11.9471C12.9943 10.2789 13.5504 8.8888 14.6625 7.77668C15.7747 6.68091 17.2629 6.13303 19.1274 6.13303C20.9918 6.13303 22.4719 6.68091 23.5677 7.77668C24.6962 8.87244 25.2604 10.2626 25.2604 11.9471C25.2604 13.6317 24.6962 15.0218 23.5677 16.1176C22.4719 17.2134 20.9918 17.7612 19.1274 17.7612C17.2629 17.7612 15.7747 17.2134 14.6625 16.1176ZM16.9195 11.9471C16.9195 12.634 17.1239 13.2064 17.5328 13.6644C17.958 14.106 18.4895 14.3267 19.1274 14.3267C19.7816 14.3267 20.3131 14.1141 20.722 13.6889C21.1308 13.2473 21.3353 12.6667 21.3353 11.9471C21.3353 11.2602 21.1227 10.696 20.6974 10.2544C20.2886 9.79649 19.7652 9.56752 19.1274 9.56752C18.4895 9.56752 17.958 9.78831 17.5328 10.2299C17.1239 10.6551 16.9195 11.2275 16.9195 11.9471Z" fill="white"/>
<path d="M27.3351 17.4669V6.42741C27.4659 6.42741 28.1365 6.40288 29.3467 6.35381C30.5733 6.30475 31.481 6.28022 32.0698 6.28022C35.5533 6.28022 37.2951 7.2615 37.2951 9.22407C37.2951 9.84555 37.0989 10.3853 36.7063 10.8432C36.3302 11.2848 35.8804 11.5464 35.3571 11.6282V11.6773C36.044 11.8735 36.5755 12.1925 36.9517 12.634C37.3442 13.0593 37.5404 13.5663 37.5404 14.155C37.5404 16.461 35.7251 17.614 32.0943 17.614C31.6037 17.614 30.7614 17.5895 29.5675 17.5405C28.39 17.4914 27.6458 17.4669 27.3351 17.4669ZM32.1924 13.0511H31.0149V14.5721C31.6527 14.6375 32.1516 14.6702 32.5114 14.6702C32.8385 14.6702 33.1083 14.5966 33.3209 14.4494C33.5335 14.2859 33.6398 14.0978 33.6398 13.8852C33.6398 13.3291 33.1574 13.0511 32.1924 13.0511ZM32.4132 9.22407C31.7754 9.22407 31.3093 9.2486 31.0149 9.29767V10.8432H32.2415C33.0102 10.8432 33.3945 10.5652 33.3945 10.0091C33.3945 9.79649 33.3046 9.61658 33.1247 9.46939C32.9448 9.30584 32.7076 9.22407 32.4132 9.22407Z" fill="white"/>
<path d="M40.9195 16.1176C39.8074 15.0055 39.2514 13.6153 39.2514 11.9471C39.2514 10.2789 39.8074 8.8888 40.9195 7.77668C42.0317 6.68091 43.52 6.13303 45.3844 6.13303C47.2488 6.13303 48.7289 6.68091 49.8247 7.77668C50.9532 8.87244 51.5174 10.2626 51.5174 11.9471C51.5174 13.6317 50.9532 15.0218 49.8247 16.1176C48.7289 17.2134 47.2488 17.7612 45.3844 17.7612C43.52 17.7612 42.0317 17.2134 40.9195 16.1176ZM43.1765 11.9471C43.1765 12.634 43.3809 13.2064 43.7898 13.6644C44.215 14.106 44.7466 14.3267 45.3844 14.3267C46.0386 14.3267 46.5701 14.1141 46.979 13.6889C47.3878 13.2473 47.5923 12.6667 47.5923 11.9471C47.5923 11.2602 47.3797 10.696 46.9544 10.2544C46.5456 9.79649 46.0222 9.56752 45.3844 9.56752C44.7466 9.56752 44.215 9.78831 43.7898 10.2299C43.3809 10.6551 43.1765 11.2275 43.1765 11.9471Z" fill="white"/>
<path d="M61.6386 0L63.5521 3.04198C63.0615 3.54898 62.5545 3.90878 62.0311 4.12139C61.7695 4.21952 61.1889 4.39942 60.2894 4.6611C59.4062 4.90642 58.7929 5.11903 58.4495 5.29893C57.3537 5.8877 56.7159 6.86081 56.536 8.21825H56.585C56.9285 7.77668 57.4109 7.40869 58.0324 7.11431C58.6539 6.81992 59.2999 6.67273 59.9704 6.67273C61.426 6.67273 62.6036 7.16337 63.5031 8.14466C64.4026 9.09323 64.8523 10.3934 64.8523 12.0453C64.8523 13.6644 64.3126 15.0218 63.2332 16.1176C62.1538 17.2134 60.7309 17.7612 58.9646 17.7612C57.0511 17.7612 55.5547 17.1234 54.4753 15.8477C53.3958 14.5721 52.8561 12.8466 52.8561 10.6715C52.8561 6.01037 54.2708 3.05016 57.1002 1.79084C57.6562 1.54552 58.2696 1.34926 58.9401 1.20207C59.6924 1.02217 60.2485 0.858623 60.6083 0.711431C60.9844 0.547883 61.3279 0.31074 61.6386 0ZM56.7813 11.4565C56.7976 12.2742 56.9939 12.9611 57.37 13.5172C57.7462 14.0569 58.245 14.3267 58.8665 14.3267C59.7169 14.3922 60.3221 14.0569 60.6819 13.3209C61.0417 12.585 61.0499 11.849 60.7064 11.113C60.3793 10.3771 59.8151 10.0418 59.0137 10.1072C57.9343 10.1072 57.1901 10.557 56.7813 11.4565Z" fill="white"/>
<path d="M68.1138 9.88644L67.2061 7.21244C68.3836 6.49283 69.7492 6.13303 71.3029 6.13303C72.9057 6.13303 74.0669 6.51736 74.7865 7.28603C75.5225 8.05471 75.8904 9.23225 75.8904 10.8187V17.4669H72.7013V16.461C72.1616 17.2297 71.1966 17.614 69.8065 17.614C68.7598 17.614 67.9175 17.3033 67.2797 16.6818C66.6418 16.0603 66.3229 15.2099 66.3229 14.1305C66.3229 12.9693 66.6827 12.0698 67.4023 11.432C68.1383 10.7941 69.1032 10.4752 70.2971 10.4752C71.2293 10.4752 71.949 10.6796 72.4559 11.0885C72.5377 9.8292 72.0307 9.19954 70.935 9.19954C70.1826 9.19954 69.2422 9.4285 68.1138 9.88644ZM71.0576 14.5475C71.7118 14.5475 72.1779 14.3595 72.4559 13.9833V13.2964C72.1125 13.0511 71.6464 12.9284 71.0576 12.9284C70.7469 12.9284 70.4934 13.002 70.2971 13.1492C70.1009 13.2964 70.0027 13.5008 70.0027 13.7625C70.0027 14.0078 70.1009 14.2041 70.2971 14.3513C70.4934 14.4821 70.7469 14.5475 71.0576 14.5475Z" fill="white"/>
<path d="M89.2566 17.4669H85.5768V13.6644H82.0196V17.4669H78.3398V6.42741H82.0196V10.2299H85.5768V6.42741H89.2566V17.4669Z" fill="white"/>
<path d="M99.5524 11.7018L95.6273 17.4669H91.9475V6.42741H95.6273V12.1925L99.5524 6.42741H103.232V17.4669H99.5524V11.7018Z" fill="white"/>
<path d="M115.967 19.0003C115.595 19.0003 115.223 18.8633 114.936 18.5886C114.36 18.0315 114.356 17.127 114.923 16.5629C114.943 16.5398 116.05 15.2474 114.652 12.4814C112.289 7.80432 114.813 5.22498 114.923 5.11593C115.493 4.55323 116.42 4.54764 116.997 5.10125C117.564 5.64858 117.579 6.53422 117.036 7.09972C116.952 7.19618 115.907 8.49564 117.281 11.2141C119.643 15.8897 117.119 18.467 117.01 18.5753C116.724 18.8577 116.345 19.0003 115.967 19.0003Z" fill="#DA5C3E"/>
<path d="M124.475 19.0003C124.102 19.0003 123.728 18.8605 123.443 18.5809C122.874 18.0203 122.874 17.115 123.444 16.5551C123.465 16.5328 124.576 15.2458 123.17 12.4868C120.785 7.80395 123.334 5.21684 123.444 5.10988C124.014 4.54996 124.935 4.54996 125.505 5.10988C126.067 5.65932 126.075 6.54709 125.532 7.10841C125.447 7.20558 124.401 8.49949 125.779 11.2068C128.166 15.8924 125.616 18.4754 125.505 18.5823C125.221 18.8605 124.848 19.0003 124.475 19.0003Z" fill="#DA5C3E"/>
<path d="M133.37 19.0003C132.997 19.0003 132.623 18.8605 132.338 18.5809C131.77 18.0203 131.77 17.115 132.339 16.5551C132.36 16.5327 133.471 15.2457 132.065 12.4866C129.682 7.80368 132.227 5.2179 132.338 5.10955C132.908 4.54961 133.83 4.55101 134.401 5.10815C134.962 5.659 134.971 6.54679 134.428 7.10673C134.345 7.2011 133.296 8.49504 134.675 11.2052C137.061 15.891 134.512 18.474 134.401 18.5809C134.117 18.8605 133.744 19.0003 133.37 19.0003Z" fill="#DA5C3E"/>
</svg>
